<?xml version="1.0" encoding="utf-8"?>
<!-- Generator: Adobe Illustrator 16.0.0, SVG Export Plug-In . SVG Version: 6.00 Build 0)  -->
<!DOCTYPE svg PUBLIC "-//W3C//DTD SVG 1.1//EN" "http://www.w3.org/Graphics/SVG/1.1/DTD/svg11.dtd">
<svg version="1.1" id="Layer_1" xmlns="http://www.w3.org/2000/svg" xmlns:xlink="http://www.w3.org/1999/xlink" x="0px" y="0px"
	 width="626px" height="340px" viewBox="0 0 626 340" enable-background="new 0 0 626 340" xml:space="preserve">
<g>
	<defs>
		<rect id="SVGID_1_" x="-2.092" y="2" width="624.184" height="338.484"/>
	</defs>
	<clipPath id="SVGID_2_">
		<use xlink:href="#SVGID_1_"  overflow="visible"/>
	</clipPath>
	<g clip-path="url(#SVGID_2_)">
		<path fill="#9D7248" d="M157.081,641.342"/>
		<g>
			<path fill-rule="evenodd" clip-rule="evenodd" fill="#9D7248" d="M464.586,256.961c-27.201,5.291-43.734,17.039-39.43,41.488
				C446.969,307.496,467.852,280.541,464.586,256.961z"/>
			<path fill-rule="evenodd" clip-rule="evenodd" fill="#9D7248" d="M215.696,282.67c15.427-22.4,20.312-54.91-7.43-68.834
				C194.249,233.271,183.784,273.264,215.696,282.67z"/>
			<path fill-rule="evenodd" clip-rule="evenodd" fill="#9D7248" d="M319.832,285.943c30.23,1.408,50.287-21.746,44.717-41.475
				C334.186,244.588,326.307,264.646,319.832,285.943z"/>
			<path fill-rule="evenodd" clip-rule="evenodd" fill="#9D7248" d="M260.812,399.291c23.757,15.479,57.411-7.434,60.69-33.285
				C286.801,364.258,263.053,372.26,260.812,399.291z"/>
			<path fill-rule="evenodd" clip-rule="evenodd" fill="#9D7248" d="M123.077,130.608c-8.565,25.293-8.285,45.394,11.424,54.116
				C148.475,165.85,142.862,138.042,123.077,130.608z"/>
			<path fill-rule="evenodd" clip-rule="evenodd" fill="#9D7248" d="M293.086,195.943c24.703-15.123,31.228-49.485,12.057-67.143
				C283.605,153.731,274.61,176.824,293.086,195.943z"/>
			<path fill-rule="evenodd" clip-rule="evenodd" fill="#9D7248" d="M-0.546,260.678c-2.312-20.768-22.787-35.533-40.178-28.422
				C-31.047,253.955-18.697,266.893-0.546,260.678z"/>
			<path fill-rule="evenodd" clip-rule="evenodd" fill="#9D7248" d="M586.549,178.299c-23.23,0.646-39.566,6.938-40.738,25.678
				C565.441,209.666,586.449,196.715,586.549,178.299z"/>
			<path fill-rule="evenodd" clip-rule="evenodd" fill="#9D7248" d="M461.258,123.269c-17.463-1.195-27.961,20.742-30.523,36.566
				C448.783,162.181,464.234,143.294,461.258,123.269z"/>
			<path fill-rule="evenodd" clip-rule="evenodd" fill="#9D7248" d="M538.064,308.93c-21.861,0.521-37.254,6.404-38.416,24.021
				C518.105,338.354,537.918,326.24,538.064,308.93z"/>
			<path fill-rule="evenodd" clip-rule="evenodd" fill="#9D7248" d="M221.077,80.935c21.15-17.893,22.32-51.311,1.637-65.217
				C205.987,42.413,200.852,65.538,221.077,80.935z"/>
			<path fill-rule="evenodd" clip-rule="evenodd" fill="#9D7248" d="M379.779,91.854c-21.107,10.916-33.318,23.975-26.1,41.752
				C374.281,130.096,387.877,108.851,379.779,91.854z"/>
			<path fill-rule="evenodd" clip-rule="evenodd" fill="#9D7248" d="M115.33,278.574c-5.992-21.053-13.409-40.877-43.221-41.521
				C66.252,256.334,85.61,279.438,115.33,278.574z"/>
			<path fill-rule="evenodd" clip-rule="evenodd" fill="#9D7248" d="M593.855,224.533c-20.998,3.119-49.469-1.318-69.811-10.867
				c2.23-19.604-2.061-32.668-8.799-48.378c-5.443,5.67-12.721,11.732-18.723,14.324c2.584,6.643,4.344,12.549,4.863,19.24
				c-19.188-12.854-44.09-24.562-73.008-26.746c2.754,10.66,4.314,21.422,5.186,29.857c57.652,10.795,100.613,71.715,173.635,44.834
				C604.318,238.082,597.801,230.383,593.855,224.533z"/>
			<path fill-rule="evenodd" clip-rule="evenodd" fill="#9D7248" d="M51.568,157.343c3.173-23.105-13.372-32.002-38.937-34.436
				C8.346,145.526,28.485,162.922,51.568,157.343z"/>
			<path fill-rule="evenodd" clip-rule="evenodd" fill="#9D7248" d="M457.838,339.568c35.777-13.971,61.469-61.32,63.732-81.387
				c-8.266-1.309-14.953-7.922-23.477-9.756c-15.318,38.84-27.908,73.729-91.613,73.27c-10.992-0.102-17.012-3.135-20.125-5.955
				c21.094-26.521,41.092-67.264,35.459-117.562c0.055,0.004,0.135,0.004,0.209,0.014c-1.037-8.508-2.791-19.031-5.758-29.066
				c-0.15,0-0.297,0.016-0.434,0.016c-4.322-14.462-10.807-29.562-19.998-45.201c-0.15,0-0.252,0-0.377,0
				c-11.625,0.053-21.943,11.672-29.641,24.006c5.34,8.951,9.559,17.607,12.877,26.026c-12.129,3.154-24.645,7.951-37.523,14.84
				c-25.246,13.535-46.186,32.836-62.893,53.93c0.9-60.291-25.362-104.938-29.325-111.287c-1.996-2.81-4.098-5.508-6.236-8.16
				c7.867-4.124,15.961-7.427,24.088-9.759c1.129-0.308,2.292-0.621,3.443-0.914c23.459-5.887,47.044-3.462,66.955,11.51
				c0.139-0.191,0.258-0.391,0.402-0.581c4.369-10.368,8.381-23.012,7.904-33.601c-24.145-10.235-49.674-12.49-73.096-9.854
				c0-0.012,0-0.012,0-0.033c-0.142,0.033-0.31,0.053-0.444,0.08c-11.354,1.303-22.209,3.758-32.164,7.029
				c-2.516,1.006-10.989,4.864-22.304,11.808c-3.836-2.844-7.874-5.505-12.108-7.94c0.047-0.279,0.017-0.332-0.139-0.078
				c-1.011-0.574-2.01-1.16-3.033-1.729c-14.382-8.502-31.879-13.857-50.446-15.695c-0.409-0.043-0.783-0.113-1.185-0.168v0.078
				c-14.301-1.291-29.15-0.537-43.699,2.467c-2.967,10.963-3.391,24.344-2.85,36.275c12.714-3.668,25.414-5.145,37.841-4.225
				c16.812,0.205,37.062,5.553,51.651,14.609c60.512,42.572,70.257,174.993,15.193,220.521c-0.26,1.039-0.568,1.85-0.936,2.537
				c-50.281-42.174-53.459-140.871-0.295-196.929c-5.843-7.27-14.082-14.584-25.636-20.625
				c-5.401,5.723-10.272,11.646-14.549,17.648c-2.788,4.455-16.666,29.376-24.296,64.921c-0.597,0.961-1.265,1.891-1.817,2.908
				c-11.672-8.666-32.961-21.838-51.646-30.279c1.112-12.458,4.896-22.386,7.045-27.138c-6.326-6.521-16.058-11.46-25.966-15.086
				c-6.149,12.333-8.731,23.851-9.527,33.69c-30.167-4.439-51.326-0.057-63.193,1.914c-2.03,9.738-6.69,29.199-7.036,31.254
				c17.213-3.477,59.686-9.594,99.822,9.115c27.201,13.514,50.035,40.119,49.381,89.115c0,0.043,0,0.076,0,0.113
				c0.176,2.904-0.405,14.797-0.71,14.768c-0.112,1.553-0.034,2.758-0.206,4.256c0.206,0.539,0.346,0.998,0.553,1.502
				c-24.006-13.223-53.715-24.074-53.715-24.074c-53.977-18.859-48.285-74.229-48.285-74.229H5.57
				c-2.704,38.754,19.058,60.607,19.058,60.607l-47.701-8.262l-7.182,32.117c0,0,37.374,2.107,72.97,12.885
				c31.949,9.678,101.233,34.057,129.968,58.23c-66.668,76.617-35.731,170.52-22.598,189.121
				C121.725,599.506,49.292,656.34,35.317,666.09c16.234-0.139,31.059-0.33,43.923-0.561c6.948-1.635,16.218-4.391,22.979-8.596
				c63.366-38.809,186.082-163.342,132.814-252.318c-41.846,35.492-27.412,102.615-56.077,135.729
				c-18.817-53.367,3.708-114.723,43.111-157.012c18.426-15.916,41.636-29.266,62.22-35.945
				c85.88-27.781,201.98,67.402,271.22,12.059c-0.891-13.426-4.975-24.824-8.408-32.221
				C527.393,347.396,494.973,351.018,457.838,339.568z M379.988,263.354c-12.711,29.172-36.945,40.117-53.783,42.369
				c-15.621-0.654-31.351,0.506-47.15,4.096c15.594-45.723,34.388-81.217,96.054-104.68c3.885-1.465,7.678-2.684,11.42-3.684
				c1.391,7.977,1.932,15.627,1.766,22.902c-0.504,11.711-2.371,21.82-5.186,30.592
				C382.158,257.838,381.127,260.656,379.988,263.354z"/>
		</g>
	</g>
</g>
</svg>
