<?xml version="1.0" encoding="utf-8"?>
<!-- Generator: Adobe Illustrator 16.0.0, SVG Export Plug-In . SVG Version: 6.00 Build 0)  -->
<!DOCTYPE svg PUBLIC "-//W3C//DTD SVG 1.1//EN" "http://www.w3.org/Graphics/SVG/1.1/DTD/svg11.dtd">
<svg version="1.1" id="Layer_1" xmlns="http://www.w3.org/2000/svg" xmlns:xlink="http://www.w3.org/1999/xlink" x="0px" y="0px"
	 width="47px" height="35px" viewBox="0 0 47 35" enable-background="new 0 0 47 35" xml:space="preserve">
<g>
	<g>
		<path fill-rule="evenodd" clip-rule="evenodd" fill="#9D7248" d="M22.265,14.616c-4.518,6.562-5.951,16.079,2.176,20.157
			C28.542,29.08,31.606,17.37,22.265,14.616z"/>
		<path fill-rule="evenodd" clip-rule="evenodd" fill="#9D7248" d="M0.812,25.803c8.891-0.035,11.199-5.908,13.096-12.145
			C5.054,13.244-0.821,20.027,0.812,25.803z"/>
		<path fill-rule="evenodd" clip-rule="evenodd" fill="#9D7248" d="M46.188,25.803c-8.891-0.035-11.197-5.908-13.092-12.145
			C41.946,13.244,47.821,20.027,46.188,25.803z"/>
	</g>
	<g>
		<path fill="#A87A4C" d="M23.501,6.806c-2.01,0-3.303-1.34-3.303-3.35c0-1.938,1.293-3.229,3.303-3.229
			c1.938,0,3.301,1.291,3.301,3.229C26.802,5.466,25.438,6.806,23.501,6.806z"/>
	</g>
</g>
</svg>
