<?xml version="1.0" encoding="utf-8"?>
<!-- Generator: Adobe Illustrator 16.0.0, SVG Export Plug-In . SVG Version: 6.00 Build 0)  -->
<!DOCTYPE svg PUBLIC "-//W3C//DTD SVG 1.1//EN" "http://www.w3.org/Graphics/SVG/1.1/DTD/svg11.dtd">
<svg version="1.1" id="Layer_1" xmlns="http://www.w3.org/2000/svg" xmlns:xlink="http://www.w3.org/1999/xlink" x="0px" y="0px"
	 width="48px" height="36px" viewBox="0 0 48 36" enable-background="new 0 0 48 36" xml:space="preserve">
<g>
	<g>
		<g>
			<path fill="#262B2B" d="M22.766,15.117c-4.517,6.561-5.95,16.078,2.174,20.156C29.039,29.58,32.104,17.871,22.766,15.117z"/>
			<path fill="#262B2B" d="M1.313,26.303c8.891-0.035,11.199-5.908,13.096-12.145C5.556,13.744-0.319,20.527,1.313,26.303z"/>
			<path fill="#262B2B" d="M46.686,26.303c-8.891-0.035-11.197-5.908-13.091-12.145C42.443,13.744,48.318,20.527,46.686,26.303z"/>
		</g>
	</g>
	<g>
		<path fill="#262B2B" d="M24,7.307c-2.008,0-3.3-1.34-3.3-3.35c0-1.939,1.292-3.23,3.3-3.23c1.936,0,3.298,1.291,3.298,3.23
			C27.299,5.967,25.937,7.307,24,7.307z"/>
	</g>
</g>
</svg>
