<?xml version="1.0" encoding="utf-8"?>
<!-- Generator: Adobe Illustrator 16.0.0, SVG Export Plug-In . SVG Version: 6.00 Build 0)  -->
<!DOCTYPE svg PUBLIC "-//W3C//DTD SVG 1.1//EN" "http://www.w3.org/Graphics/SVG/1.1/DTD/svg11.dtd">
<svg version="1.1" id="Layer_1" xmlns="http://www.w3.org/2000/svg" xmlns:xlink="http://www.w3.org/1999/xlink" x="0px" y="0px"
	 width="48px" height="36px" viewBox="0 0 48 36" enable-background="new 0 0 48 36" xml:space="preserve">
<g>
	<g>
		<g>
			<path fill="#262B2B" d="M25.234,20.883c4.517-6.56,5.95-16.078-2.174-20.156C18.96,6.419,15.896,18.129,25.234,20.883z"/>
			<path fill="#262B2B" d="M46.687,9.697c-8.891,0.035-11.199,5.909-13.096,12.145C42.444,22.256,48.319,15.472,46.687,9.697z"/>
			<path fill="#262B2B" d="M1.314,9.697c8.891,0.035,11.197,5.909,13.091,12.145C5.556,22.256-0.319,15.472,1.314,9.697z"/>
		</g>
	</g>
	<g>
		<path fill="#262B2B" d="M24,28.693c2.008,0,3.3,1.34,3.3,3.35c0,1.939-1.292,3.23-3.3,3.23c-1.936,0-3.298-1.291-3.298-3.23
			C20.702,30.033,22.063,28.693,24,28.693z"/>
	</g>
</g>
</svg>
