<?xml version="1.0" encoding="utf-8"?>
<!-- Generator: Adobe Illustrator 16.0.0, SVG Export Plug-In . SVG Version: 6.00 Build 0)  -->
<!DOCTYPE svg PUBLIC "-//W3C//DTD SVG 1.1//EN" "http://www.w3.org/Graphics/SVG/1.1/DTD/svg11.dtd">
<svg version="1.1" id="Layer_1" xmlns="http://www.w3.org/2000/svg" xmlns:xlink="http://www.w3.org/1999/xlink" x="0px" y="0px"
	 width="42px" height="42px" viewBox="0 0 42 42" enable-background="new 0 0 42 42" xml:space="preserve">
<g>
	<g>
		<path fill="#FFFFFF" d="M41,20.486c0,10.76-8.792,19.484-19.637,19.484c-3.442,0-6.678-0.879-9.492-2.424L1,41l3.542-10.452
			c-1.787-2.937-2.815-6.381-2.815-10.062C1.726,9.724,10.518,1,21.363,1C32.208,1,41,9.724,41,20.486L41,20.486z M21.363,4.104
			c-9.106,0-16.509,7.349-16.509,16.382c0,3.583,1.167,6.905,3.143,9.606l-2.062,6.083l6.344-2.018
			c2.607,1.711,5.729,2.709,9.083,2.709c9.102,0,16.509-7.349,16.509-16.38C37.872,11.453,30.465,4.104,21.363,4.104L21.363,4.104z
			 M31.277,24.975c-0.12-0.199-0.441-0.318-0.922-0.558c-0.481-0.24-2.85-1.396-3.289-1.556c-0.441-0.157-0.765-0.237-1.084,0.24
			c-0.319,0.477-1.242,1.554-1.525,1.873c-0.28,0.318-0.561,0.357-1.04,0.118c-0.483-0.239-2.035-0.743-3.872-2.37
			c-1.429-1.268-2.396-2.831-2.679-3.307c-0.278-0.477-0.026-0.736,0.212-0.975c0.216-0.215,0.481-0.557,0.723-0.835
			c0.241-0.28,0.32-0.48,0.481-0.799c0.161-0.319,0.08-0.596-0.041-0.835c-0.121-0.239-1.084-2.589-1.486-3.546
			c-0.397-0.954-0.799-0.796-1.081-0.796c-0.28,0-0.602-0.039-0.924-0.039c-0.319,0-0.84,0.119-1.283,0.597
			c-0.439,0.477-1.683,1.634-1.683,3.981c0,2.35,1.722,4.622,1.963,4.939c0.241,0.319,3.33,5.3,8.223,7.212
			c4.896,1.91,4.896,1.271,5.777,1.193s2.847-1.154,3.249-2.271C31.396,26.129,31.396,25.172,31.277,24.975L31.277,24.975z"/>
	</g>
</g>
</svg>
