<?xml version="1.0" encoding="utf-8"?>
<!-- Generator: Adobe Illustrator 16.0.0, SVG Export Plug-In . SVG Version: 6.00 Build 0)  -->
<!DOCTYPE svg PUBLIC "-//W3C//DTD SVG 1.1//EN" "http://www.w3.org/Graphics/SVG/1.1/DTD/svg11.dtd">
<svg version="1.1" id="Layer_1" xmlns="http://www.w3.org/2000/svg" xmlns:xlink="http://www.w3.org/1999/xlink" x="0px" y="0px"
	 width="30px" height="26px" viewBox="0 0 30 26" enable-background="new 0 0 30 26" xml:space="preserve">
<path fill="#A87A4C" d="M26.926,6.971c-0.217,10.354-6.748,17.549-16.652,18.004c-4.057,0.23-6.98-1.121-9.686-2.695
	c2.926,0.453,6.762-0.678,8.783-2.482c-2.924-0.221-4.727-1.793-5.629-4.277c0.902,0.232,1.805,0,2.475,0
	c-2.703-0.898-4.496-2.473-4.727-6.08c0.682,0.451,1.57,0.684,2.473,0.684C1.942,8.994,0.588,4.714,2.172,2.01
	c2.924,3.155,6.52,5.859,12.377,6.308c-1.572-6.308,6.98-9.683,10.355-5.407c1.572-0.22,2.705-0.901,3.826-1.341
	c-0.449,1.573-1.352,2.472-2.475,3.373c1.123-0.229,2.254-0.449,3.154-0.901C29.184,5.166,28.061,6.067,26.926,6.971L26.926,6.971z"
	/>
</svg>
