<?xml version="1.0" encoding="utf-8"?>
<!-- Generator: Adobe Illustrator 16.0.0, SVG Export Plug-In . SVG Version: 6.00 Build 0)  -->
<!DOCTYPE svg PUBLIC "-//W3C//DTD SVG 1.1//EN" "http://www.w3.org/Graphics/SVG/1.1/DTD/svg11.dtd">
<svg version="1.1" id="Layer_1" xmlns="http://www.w3.org/2000/svg" xmlns:xlink="http://www.w3.org/1999/xlink" x="0px" y="0px"
	 width="22px" height="30px" viewBox="0 0 22 30" enable-background="new 0 0 22 30" xml:space="preserve">
<g>
	<path fill="#A87A4C" d="M11.002,12.757c3.508,0,6.354-2.849,6.354-6.355c0-3.509-2.846-6.354-6.354-6.354
		c-3.51,0-6.358,2.845-6.358,6.354C4.644,9.909,7.492,12.757,11.002,12.757L11.002,12.757z"/>
	<path fill="#A87A4C" d="M13.697,13.188H8.305c-4.485,0-8.137,3.654-8.137,8.136v6.6l0.017,0.102l0.454,0.142
		c4.281,1.336,8.001,1.785,11.062,1.785c5.98,0,9.447-1.705,9.66-1.813l0.426-0.214h0.045v-6.6
		C21.832,16.842,18.184,13.188,13.697,13.188L13.697,13.188z"/>
</g>
</svg>
