<?xml version="1.0" encoding="utf-8"?>
<!-- Generator: Adobe Illustrator 16.0.0, SVG Export Plug-In . SVG Version: 6.00 Build 0)  -->
<!DOCTYPE svg PUBLIC "-//W3C//DTD SVG 1.1//EN" "http://www.w3.org/Graphics/SVG/1.1/DTD/svg11.dtd">
<svg version="1.1" id="Layer_1" xmlns="http://www.w3.org/2000/svg" xmlns:xlink="http://www.w3.org/1999/xlink" x="0px" y="0px"
	 width="26px" height="26px" viewBox="0 0 26 26" enable-background="new 0 0 26 26" xml:space="preserve">
<g>
	<path fill="#FFFFFF" d="M22.581,1H3.406C2.074,1,1,2.081,1,3.397v19.196C1,23.928,2.074,25,3.406,25h19.175
		C23.925,25,25,23.928,25,22.594V3.397C25,2.081,23.925,1,22.581,1L22.581,1z M12.996,8.198c2.648,0,4.8,2.154,4.8,4.803
		c0,2.636-2.149,4.796-4.8,4.796c-2.64,0-4.799-2.16-4.799-4.796C8.197,10.353,10.356,8.198,12.996,8.198L12.996,8.198z
		 M4.005,22.594c-0.366,0-0.599-0.238-0.599-0.604V11.8h2.515c-0.125,0.37-0.125,0.843-0.125,1.201c0,3.964,3.245,7.202,7.199,7.202
		c3.962,0,7.206-3.238,7.206-7.202c0-0.358,0-0.831-0.125-1.201h2.504v10.19c0,0.365-0.227,0.604-0.588,0.604H4.005z M22.581,6.405
		c0,0.359-0.228,0.598-0.588,0.598h-2.406c-0.351,0-0.594-0.238-0.594-0.598V3.991c0-0.354,0.243-0.594,0.594-0.594h2.406
		c0.36,0,0.588,0.239,0.588,0.594V6.405z"/>
</g>
</svg>
