<?xml version="1.0" encoding="utf-8"?>
<!-- Generator: Adobe Illustrator 16.0.0, SVG Export Plug-In . SVG Version: 6.00 Build 0)  -->
<!DOCTYPE svg PUBLIC "-//W3C//DTD SVG 1.1//EN" "http://www.w3.org/Graphics/SVG/1.1/DTD/svg11.dtd">
<svg version="1.1" id="Layer_1" xmlns="http://www.w3.org/2000/svg" xmlns:xlink="http://www.w3.org/1999/xlink" x="0px" y="0px"
	 width="27px" height="34px" viewBox="0 0 27 34" enable-background="new 0 0 27 34" xml:space="preserve">
<path fill="#A87A4C" d="M26.598,25.231c0-0.02-0.002-0.039-0.004-0.058V25.07c0-0.579-0.117-1.132-0.33-1.636l-2.01-10.466
	c-0.027-0.133-0.084-0.25-0.16-0.349V4.545c0-2.304-1.875-4.179-4.178-4.179H7.081c-2.303,0-4.179,1.875-4.179,4.179v8.074
	c-0.077,0.1-0.135,0.219-0.159,0.351L0.792,23.31c-0.248,0.537-0.39,1.132-0.39,1.761v8.563h1.67v-3.736h22.852v3.736h1.67v-8.361
	C26.594,25.259,26.598,25.246,26.598,25.231L26.598,25.231z M4.573,4.545c0-1.383,1.125-2.509,2.508-2.509h12.833
	c1.385,0,2.508,1.126,2.508,2.509v7.745h-2.566c0.008-0.07,2.984-0.07,2.99,0h-2.869c0.006-0.07,0.012-0.142,0.012-0.215V8.862
	c0-1.399-1.139-2.538-2.539-2.538H9.667c-1.398,0-2.537,1.139-2.537,2.538v3.213c0,0.073,0.004,0.145,0.01,0.215H4.573V4.545z
	 M2.072,28.226V25.07c0-1.408,1.146-2.554,2.555-2.554h17.743c1.408,0,2.555,1.146,2.555,2.554v3.155H2.072z M2.072,28.226"/>
</svg>
