<?xml version="1.0" encoding="utf-8"?>
<!-- Generator: Adobe Illustrator 16.0.0, SVG Export Plug-In . SVG Version: 6.00 Build 0)  -->
<!DOCTYPE svg PUBLIC "-//W3C//DTD SVG 1.1//EN" "http://www.w3.org/Graphics/SVG/1.1/DTD/svg11.dtd">
<svg version="1.1" id="Layer_1" xmlns="http://www.w3.org/2000/svg" xmlns:xlink="http://www.w3.org/1999/xlink" x="0px" y="0px"
	 width="50px" height="46px" viewBox="0 0 50 46" enable-background="new 0 0 50 46" xml:space="preserve">
<g>
	<path fill-rule="evenodd" clip-rule="evenodd" fill="#AF7D4D" d="M24.497,1.093c0.305,0,0.611,0,0.914,0
		c5.167,3.567,11.097,7.606,16.556,11.433c0.773,0.542,1.93,1.14,1.921,2.013c0,0.336-0.332,0.921-0.456,1.007
		c-0.99,0.695-2.057-0.414-2.652-0.823c-5.241-3.604-10.639-7.232-15.734-10.886C18.29,8.332,11.782,13.074,5.013,17.558
		c4.962,3.758,10.321,7.119,15.37,10.793c0.854-0.62,1.52-1.047,2.283-1.646c0.592-0.464,1.373-1.584,2.379-1.556
		c0.99,0.027,2.531,1.718,3.385,2.378c0.191,0.148,0.897,0.817,1.006,0.823c0.329,0.02,1.77-1.196,2.286-1.555
		c4.557-3.155,8.637-5.959,13.355-9.238c0.867-0.604,1.603-1.354,2.471-1.098c1.111,0.326,0.822,2.343,0.822,4.024
		c0,4.698-0.074,9.84,0.09,14.27c0,3.018,0,6.037,0,9.055c0.006,1.372-2.48,1.007-4.115,1.007c-3.859,0-8.652-0.072-11.891,0.092
		c-10,0-20,0-30.003,0c-0.416-0.193-0.766-0.454-0.913-0.915c0-8.934,0-17.867,0-26.802c1.69-1.557,3.677-2.806,5.579-4.116
		C12.864,9.118,18.875,4.99,24.497,1.093z M31.633,29.998c4.371,3.405,9.122,7.05,13.445,10.427
		c0.238,0.186,0.498,0.524,0.822,0.458c-0.059-6.922,0.123-14.087-0.092-20.856C41.143,23.41,36.263,26.577,31.633,29.998z
		 M4.008,40.974c4.678-3.4,9.674-7.277,14.268-11.068c-4.789-3.229-9.441-6.595-14.268-9.787C4.008,27.07,4.008,34.022,4.008,40.974
		z M7.575,41.614c-0.377,0.294-1.076,0.491-0.914,0.822c12.185-0.042,24.316-0.137,36.587-0.091
		c-5.74-4.746-12.188-9.583-18.293-14.269C19.245,32.419,13.19,37.229,7.575,41.614z"/>
	<path fill-rule="evenodd" clip-rule="evenodd" fill="#AF7D4D" d="M19.741,16.46c1.647-0.151,1.63,2.395,0.184,2.469
		C18.45,19.006,17.852,16.634,19.741,16.46z"/>
	<path fill-rule="evenodd" clip-rule="evenodd" fill="#AF7D4D" d="M24.862,16.46c0.916-0.107,1.337,0.418,1.373,1.098
		c0.082,1.566-2.105,1.817-2.468,0.641C23.426,17.107,24.032,16.558,24.862,16.46z"/>
	<path fill-rule="evenodd" clip-rule="evenodd" fill="#AF7D4D" d="M30.076,16.46c0.688-0.055,1.584,0.454,1.28,1.646
		c-0.272,1.065-2.186,1.108-2.469,0C28.658,17.215,29.021,16.543,30.076,16.46z"/>
	<path fill-rule="evenodd" clip-rule="evenodd" fill="#AF7D4D" d="M48.461,43.809c0,0.367,0,0.732,0,1.099
		c-5.334,0-10.67,0-16.006,0c3.238-0.164,8.031-0.092,11.891-0.092C45.98,44.815,48.467,45.181,48.461,43.809z"/>
	<path fill-rule="evenodd" clip-rule="evenodd" fill="#AF7D4D" d="M1.539,43.992c0.147,0.461,0.497,0.722,0.913,0.915
		c-0.305,0-0.609,0-0.913,0C1.539,44.603,1.539,44.297,1.539,43.992z"/>
</g>
<g>
</g>
<g>
</g>
<g>
</g>
<g>
</g>
<g>
</g>
<g>
</g>
</svg>
