<?xml version="1.0" encoding="utf-8"?>
<!-- Generator: Adobe Illustrator 16.0.0, SVG Export Plug-In . SVG Version: 6.00 Build 0)  -->
<!DOCTYPE svg PUBLIC "-//W3C//DTD SVG 1.1//EN" "http://www.w3.org/Graphics/SVG/1.1/DTD/svg11.dtd">
<svg version="1.1" id="Layer_1" xmlns="http://www.w3.org/2000/svg" xmlns:xlink="http://www.w3.org/1999/xlink" x="0px" y="0px"
	 width="42px" height="46px" viewBox="0 0 42 46" enable-background="new 0 0 42 46" xml:space="preserve">
<path fill-rule="evenodd" clip-rule="evenodd" fill="#AF7D4D" d="M34.496,29.565c0.225-0.25-2.273-0.782-2.273-0.782
	c-0.047,0.044-0.092,0.089-0.139,0.133c-1.803,0.109-2.686,0.617-3.896,1.577c-0.517,0.409-1.181,1.342-1.763,1.391
	c-1.277,0.108-3.592-2.166-4.359-2.875c-2.719-2.509-4.447-4.742-6.586-7.7c-0.812-1.121-2.502-3.365-2.32-4.824
	c0.145-1.131,2.09-1.96,2.878-2.967c0.406-0.521,0.419-0.371,0.731-1.469c0.625-2.204,0-2.919,0-2.919
	c-1.289-3.493-2.965-6.597-6.483-7.857c-0.38-0.162-1.266-0.31-1.948,0C5.055,2.753,2.102,4.56,1.196,8.416c0,1.051,0,2.103,0,3.153
	c1.707,9.06,6.233,15.727,11.873,21.708c3.902,4.139,8.518,8.341,14.562,10.574c1.936,0.714,4.887,1.516,7.143,0.741
	c0.691-0.235,1.58-0.985,2.412-1.669c1.627-1.338,3.074-2.736,3.619-4.823c0-0.526,0-1.051,0-1.577
	C39.822,33.083,37.221,31.265,34.496,29.565z M37.465,39.862c-0.629,0.656-2.678,2.535-3.525,2.782
	c-0.541,0.157-1.779,0.144-2.316,0.093c-3.707-0.345-7.585-2.842-10.297-4.823c-5.443-3.976-10.707-9.938-14.102-15.956
	c-1.797-3.184-3.687-6.904-3.99-11.038C2.977,7.337,4.398,6.251,6.391,4.706C7.51,5.02,8.08,7.864,9.543,7.859
	c0.594-0.003,0.947-0.376,1.021-0.835c0.214-1.323-1.25-2.154-1.764-2.969C7.937,3.084,9.237,3.166,10.194,3.5
	c1.181,0.411,2.198,1.664,3.061,2.968c0.821,1.241,1.786,3,1.669,4.359c-0.223,2.558-3.762,2.766-3.896,5.474
	c-0.176,3.536,3.962,7.824,5.657,9.833c1.215,1.438,2.345,2.809,3.618,4.082c1.257,1.258,2.835,2.684,4.36,3.339
	c1.29,0.554,2.633,0.46,3.711-0.186c0.664,0.495,1.34,0.915,2.133,1.484c0.6,0.432,3.127,2.5,3.154,0.278
	c0.018-1.435-3.139-2.352-3.711-3.34c2.184-1.817,4.721,0.183,6.307,1.67C38.217,35.298,39.844,37.376,37.465,39.862z"/>
<g>
</g>
<g>
</g>
<g>
</g>
<g>
</g>
<g>
</g>
<g>
</g>
</svg>
