<?xml version="1.0" encoding="utf-8"?>
<!-- Generator: Adobe Illustrator 16.0.0, SVG Export Plug-In . SVG Version: 6.00 Build 0)  -->
<!DOCTYPE svg PUBLIC "-//W3C//DTD SVG 1.1//EN" "http://www.w3.org/Graphics/SVG/1.1/DTD/svg11.dtd">
<svg version="1.1" id="Layer_1" xmlns="http://www.w3.org/2000/svg" xmlns:xlink="http://www.w3.org/1999/xlink" x="0px" y="0px"
	 width="43px" height="34px" viewBox="0 0 43 34" enable-background="new 0 0 43 34" xml:space="preserve">
<path fill="#A87A4C" d="M42.512,25.231c0-0.02-0.003-0.039-0.004-0.058V25.07c0-0.579-0.118-1.132-0.33-1.636l-2.012-10.466
	c-0.025-0.133-0.082-0.25-0.158-0.349V4.545c0-2.304-1.875-4.179-4.179-4.179H7.168c-2.304,0-4.18,1.875-4.18,4.179v8.074
	c-0.077,0.1-0.134,0.219-0.16,0.351L0.879,23.31c-0.248,0.537-0.391,1.132-0.391,1.761v8.563h1.67v-3.736h38.678v3.736h1.672v-8.361
	C42.508,25.259,42.512,25.246,42.512,25.231L42.512,25.231z M4.66,4.545c0-1.383,1.125-2.509,2.508-2.509h28.66
	c1.383,0,2.508,1.126,2.508,2.509v7.745H35.77c0.006-0.07,0.012-0.142,0.012-0.215V8.862c0-1.399-1.139-2.538-2.538-2.538h-7.784
	c-1.398,0-2.538,1.139-2.538,2.538v3.213c0,0.073,0.005,0.145,0.011,0.215h-2.867c0.006-0.07,0.011-0.142,0.011-0.215V8.862
	c0-1.399-1.14-2.538-2.538-2.538H9.754c-1.399,0-2.538,1.139-2.538,2.538v3.213c0,0.073,0.005,0.145,0.011,0.215H4.66V4.545z
	 M2.158,28.226V25.07c0-1.408,1.146-2.554,2.555-2.554h33.569c1.409,0,2.554,1.146,2.554,2.554v3.155H2.158z M2.158,28.226"/>
</svg>
