<?xml version="1.0" encoding="utf-8"?>
<!-- Generator: Adobe Illustrator 16.0.0, SVG Export Plug-In . SVG Version: 6.00 Build 0)  -->
<!DOCTYPE svg PUBLIC "-//W3C//DTD SVG 1.1//EN" "http://www.w3.org/Graphics/SVG/1.1/DTD/svg11.dtd">
<svg version="1.1" id="Layer_1" xmlns="http://www.w3.org/2000/svg" xmlns:xlink="http://www.w3.org/1999/xlink" x="0px" y="0px"
	 width="26px" height="20px" viewBox="0 0 26 20" enable-background="new 0 0 26 20" xml:space="preserve">
<g>
	<path fill="#292C2C" d="M24.914,6.177C21.738,3,17.506,1.25,13,1.25C8.494,1.25,4.262,3,1.085,6.177
		c-0.313,0.312-0.313,0.822,0,1.135c0.152,0.151,0.353,0.235,0.567,0.235c0.212,0,0.419-0.087,0.564-0.235
		c5.946-5.944,15.621-5.946,21.566,0c0.15,0.151,0.352,0.235,0.566,0.235l0,0c0.213,0,0.414-0.084,0.564-0.235
		C25.229,6.999,25.229,6.489,24.914,6.177z"/>
	<path fill="#292C2C" d="M13.001,5.832c-3.28,0-6.361,1.274-8.674,3.588C4.176,9.571,4.093,9.772,4.093,9.987
		c0,0.214,0.083,0.415,0.235,0.566c0.151,0.151,0.352,0.235,0.565,0.235h0c0.214,0,0.415-0.084,0.566-0.235
		c2.013-2.01,4.691-3.117,7.542-3.117c2.852,0,5.53,1.107,7.538,3.117c0.152,0.151,0.354,0.235,0.568,0.235s0.414-0.084,0.564-0.235
		c0.152-0.15,0.234-0.353,0.234-0.566c0-0.215-0.082-0.417-0.234-0.567C19.359,7.106,16.279,5.832,13.001,5.832z"/>
	<path fill="#292C2C" d="M13.001,11.021c-2.131,0-3.864,1.733-3.864,3.863c0,2.131,1.733,3.865,3.864,3.865
		c2.129,0,3.862-1.734,3.862-3.865C16.863,12.755,15.131,11.021,13.001,11.021z M15.262,14.885c0,1.246-1.014,2.261-2.26,2.261
		c-1.246,0-2.26-1.015-2.26-2.261c0-1.245,1.014-2.259,2.26-2.259C14.248,12.626,15.262,13.64,15.262,14.885z"/>
</g>
</svg>
