<?xml version="1.0" encoding="utf-8"?>
<!-- Generator: Adobe Illustrator 16.0.0, SVG Export Plug-In . SVG Version: 6.00 Build 0)  -->
<!DOCTYPE svg PUBLIC "-//W3C//DTD SVG 1.1//EN" "http://www.w3.org/Graphics/SVG/1.1/DTD/svg11.dtd">
<svg version="1.1" id="Layer_1" xmlns="http://www.w3.org/2000/svg" xmlns:xlink="http://www.w3.org/1999/xlink" x="0px" y="0px"
	 width="20px" height="34px" viewBox="0 0 20 34" enable-background="new 0 0 20 34" xml:space="preserve">
<g>
	<path fill="#3B3B3B" d="M8.693,1c-0.447,0-0.81,0.362-0.81,0.81v4.005H6.223V1.81C6.223,1.362,5.86,1,5.413,1
		c-0.447,0-0.81,0.362-0.81,0.81v4.005H2.942V1.81C2.942,1.362,2.58,1,2.133,1s-0.81,0.362-0.81,0.81v7.314
		c0,1.979,1.412,3.632,3.281,4.009v19.057c0,0.447,0.362,0.811,0.81,0.811c0.447,0,0.809-0.363,0.809-0.811V13.133
		c1.869-0.377,3.281-2.03,3.281-4.009V1.81C9.503,1.362,9.141,1,8.693,1L8.693,1z M7.884,9.124c0,1.362-1.108,2.472-2.471,2.472
		s-2.471-1.108-2.471-2.472v-1.69h4.941V9.124z M7.884,9.124"/>
	<path fill="#3B3B3B" d="M14.336,1.186c-0.242-0.2-0.577-0.242-0.86-0.108c-0.283,0.133-0.465,0.419-0.465,0.732v30.38
		c0,0.447,0.362,0.811,0.81,0.811c0.446,0,0.81-0.363,0.81-0.811V17.345c1.689-0.498,4.045-2.053,4.047-5.456
		C18.683,4.858,14.514,1.332,14.336,1.186L14.336,1.186z M14.63,15.618V3.961c1.082,1.521,2.432,4.171,2.428,7.927
		C17.056,14.198,15.622,15.201,14.63,15.618L14.63,15.618z M14.63,15.618"/>
</g>
</svg>
