<?xml version="1.0" encoding="utf-8"?>
<!-- Generator: Adobe Illustrator 16.0.0, SVG Export Plug-In . SVG Version: 6.00 Build 0)  -->
<!DOCTYPE svg PUBLIC "-//W3C//DTD SVG 1.1//EN" "http://www.w3.org/Graphics/SVG/1.1/DTD/svg11.dtd">
<svg version="1.1" id="Layer_1" xmlns="http://www.w3.org/2000/svg" xmlns:xlink="http://www.w3.org/1999/xlink" x="0px" y="0px"
	 width="268px" height="70px" viewBox="0 0 268 70" enable-background="new 0 0 268 70" xml:space="preserve">
<g>
	<g>
		<path fill="#E7E9E8" d="M113.608,18.701c0-5.775-0.048-6.994-2.322-6.994h-1.28v-1.312h11.084
			c2.65,4.608,5.016,7.906,7.812,11.975l8.046,11.742h-0.029v-15.41c0-5.775-0.048-6.994-2.32-6.994h-1.767v-1.312h10.085v1.312
			h-1.752c-2.276,0-2.321,1.219-2.321,6.994v24.132h-4.686l-18.656-27.286h0.095v18.701c0,5.783,0.045,7.006,2.32,7.006h1.47v1.309
			h-9.38v-1.309h1.28c2.274,0,2.322-1.223,2.322-7.006V18.701z M135.481,1.178c-0.521,2.804-2.131,6.055-5.732,6.055
			c-3.122,0-5.207-2.348-7.76-2.348c-1.376,0-1.896,1.039-2.227,2.168h-2.272C118.011,4.252,119.62,1,123.219,1
			c3.125,0,5.207,2.348,7.763,2.348c1.374,0,1.899-1.039,2.227-2.17H135.481z"/>
		<path fill="#E7E9E8" d="M149.018,41.254h1.277c2.273,0,2.324-1.223,2.324-7.006V18.701c0-5.775-0.051-6.994-2.371-6.994h-1.23
			v-1.312h14.583v1.312h-1.229c-2.323,0-2.37,1.219-2.37,6.994v15.547c0,5.783,0.047,7.006,2.322,7.006h1.276v1.309h-14.583V41.254z
			"/>
		<path fill="#E7E9E8" d="M207.813,41.254h1.282c2.27,0,2.319-1.223,2.319-7.006V18.701c0-5.775-0.05-6.994-2.37-6.994h-1.231
			v-1.312h26.567v7.635h-1.803c-0.52-5.104-3.736-6.051-7.574-6.051h-6.203v13.19h4.118c3.266,0,6.062-0.679,6.155-4.924h1.802
			v11.428h-1.802c-0.094-4.245-2.89-4.925-6.155-4.925h-4.118v14.23h5.449c4.493,0,8.754-0.768,8.944-6.412h1.8v7.996h-27.181
			V41.254z"/>
		<path fill="#E7E9E8" d="M244.363,33.977h1.797c0,4.477,4.215,7.728,9.09,7.728c3.979,0,6.58-2.214,6.58-5.784
			c0-8.402-17.752-4.605-17.752-16.531c0-6.373,5.068-9.717,11.223-9.717c2.695,0,5.535,1.176,7.098,1.176
			c0.852,0,1.281-0.453,1.374-0.906h1.517v8.136h-1.797c-0.285-4.068-3.602-6.823-7.957-6.823c-3.217,0-6.625,1.537-6.625,5.061
			c0,7.812,18.035,3.745,18.035,16.803c0,6.418-5.49,10.166-11.695,10.166c-3.266,0-6.249-1.176-8.098-1.176
			c-0.847,0-1.135,0.361-1.275,0.904h-1.514V33.977z"/>
		<path fill="#E7E9E8" d="M199.871,39.893c-1.455-1.002-3.459-3.114-6.004-6.34c-3.129-3.977-5.398-6.287-6.8-6.927
			c3.143-0.356,5.524-1.271,7.145-2.737c1.621-1.461,2.433-3.229,2.433-5.305c0-1.779-0.623-3.308-1.858-4.585
			c-1.244-1.282-2.87-2.2-4.881-2.763c-1.753-0.49-3.964-0.809-6.653-0.832v-0.01h-14.583v1.312h1.231
			c2.318,0,2.367,1.219,2.367,6.994v15.547c0,5.783-0.049,7.006-2.32,7.006h-1.278v1.309h14.583v-0.005v-1.097v-0.207h-1.28
			c-2.271,0-2.319-1.223-2.319-7.006v-6.982c0.849,0.01,1.487,0.151,1.904,0.426c0.423,0.291,1.213,1.092,2.355,2.412
			c1.143,1.316,2.242,2.692,3.303,4.129c3.308,4.489,5.765,7.266,7.371,8.325c1.066,0.724,2.704,1.206,4.268,1.167
			c2.988,0.086,6.185-1.167,6.185-1.167V41.48C203.047,41.42,201.328,40.885,199.871,39.893z M181.467,25.938
			c-0.607-0.018-1.191-0.082-1.814-0.175v-7.062c0-4.301-0.053-5.996,0.764-6.639c0.465-0.213,0.993-0.338,1.612-0.354l0.565-0.002
			c2.867,0.156,4.133,0.871,5.095,1.895c1.259,1.339,1.892,3.124,1.892,5.355c0,1.279-0.188,2.354-0.555,3.228
			c-0.37,0.871-0.809,1.476-1.448,2.009c-0.644,0.541-1.489,0.951-2.524,1.229C184.035,25.695,182.834,25.869,181.467,25.938z"/>
		<g>
			<path fill="#E7E9E8" d="M1.055,41.525h1.278c2.273,0,2.323-1.221,2.323-7.005V18.978c0-5.78-0.05-6.999-2.369-6.999H1.055v-1.31
				h14.586v1.31h-1.229c-2.32,0-2.37,1.219-2.37,6.999v22.273h5.066c4.688,0,8.049-1.264,8.476-6.956h1.799v8.538H1.055V41.525z"/>
			<path fill="#E7E9E8" d="M49.157,9.941c9.944,0,15.012,7.68,15.012,16.447c0,8.944-4.549,17.165-15.012,17.165
				s-15.01-8.221-15.01-17.165C34.147,17.621,39.214,9.941,49.157,9.941z M49.157,42.245c6.392,0,7.057-7.409,7.057-15.631
				c0-9.851-1.325-15.36-7.057-15.36c-5.727,0-7.055,5.51-7.055,15.36C42.103,34.836,42.765,42.245,49.157,42.245z"/>
			<path fill="#E7E9E8" d="M72.686,34.248h1.797c0,4.474,4.215,7.727,9.094,7.727c3.974,0,6.579-2.213,6.579-5.781
				c0-8.406-17.756-4.609-17.756-16.535c0-6.372,5.067-9.717,11.222-9.717c2.697,0,5.539,1.176,7.104,1.176
				c0.849,0,1.274-0.448,1.37-0.903h1.519v8.134h-1.806c-0.28-4.068-3.593-6.826-7.953-6.826c-3.22,0-6.626,1.539-6.626,5.065
				c0,7.815,18.04,3.746,18.04,16.804c0,6.414-5.491,10.163-11.693,10.163c-3.269,0-6.254-1.174-8.099-1.174
				c-0.854,0-1.14,0.366-1.279,0.903h-1.513V34.248z"/>
		</g>
	</g>
	<g>
		<circle fill-rule="evenodd" clip-rule="evenodd" fill="#A87A4C" cx="184.315" cy="61.743" r="2.538"/>
		<circle fill-rule="evenodd" clip-rule="evenodd" fill="#A87A4C" cx="83.686" cy="61.743" r="2.536"/>
		<g>
			<g>
				<path fill="#9D7248" d="M94.082,55.492h2.923v10.623h6.622v2.656h-9.545V55.492z"/>
				<path fill="#9D7248" d="M107.702,62.171v-0.036c0-3.779,2.979-6.872,7.079-6.872c4.098,0,7.04,3.054,7.04,6.833v0.039
					c0,3.773-2.98,6.865-7.079,6.865C110.646,69,107.702,65.945,107.702,62.171z M118.765,62.171v-0.036
					c0-2.277-1.668-4.175-4.022-4.175c-2.351,0-3.983,1.856-3.983,4.136v0.039c0,2.273,1.669,4.172,4.022,4.172
					C117.133,66.307,118.765,64.447,118.765,62.171z"/>
				<path fill="#9D7248" d="M127.644,55.492h5.181c4.17,0,7.057,2.863,7.057,6.604v0.039c0,3.736-2.887,6.637-7.057,6.637h-5.181
					V55.492z M130.567,58.129v8.007h2.257c2.388,0,4.004-1.612,4.004-3.965v-0.036c0-2.357-1.616-4.006-4.004-4.006H130.567z"/>
				<path fill="#9D7248" d="M145.114,62.171v-0.036c0-3.779,2.942-6.872,6.964-6.872c2.393,0,3.834,0.646,5.219,1.823l-1.84,2.219
					c-1.025-0.856-1.936-1.345-3.473-1.345c-2.127,0-3.814,1.878-3.814,4.136v0.039c0,2.426,1.672,4.211,4.023,4.211
					c1.063,0,2.009-0.269,2.751-0.801v-1.896h-2.94v-2.521h5.766v5.768c-1.366,1.158-3.244,2.105-5.674,2.105
					C147.962,69,145.114,66.098,145.114,62.171z"/>
				<path fill="#9D7248" d="M163.804,55.492h10.019v2.598h-7.117v2.695h6.264v2.6h-6.264v2.791h7.209v2.596h-10.11V55.492z"/>
			</g>
		</g>
	</g>
</g>
</svg>
