<?xml version="1.0" encoding="utf-8"?>
<!-- Generator: Adobe Illustrator 16.0.0, SVG Export Plug-In . SVG Version: 6.00 Build 0)  -->
<!DOCTYPE svg PUBLIC "-//W3C//DTD SVG 1.1//EN" "http://www.w3.org/Graphics/SVG/1.1/DTD/svg11.dtd">
<svg version="1.1" id="Layer_1" xmlns="http://www.w3.org/2000/svg" xmlns:xlink="http://www.w3.org/1999/xlink" x="0px" y="0px"
	 width="364px" height="196px" viewBox="0 0 364 196" enable-background="new 0 0 364 196" xml:space="preserve">
<rect fill="#262B2B" width="364" height="196"/>
<path fill="#9D7248" d="M181.135,143.763c0.05,0.069,0.08,0.131,0.105,0.175C181.203,143.891,181.169,143.842,181.135,143.763z"/>
<path fill="#9D7248" d="M181.162,143.938c0.016,0.025,0.033,0.063,0.051,0.079C181.193,143.999,181.178,143.972,181.162,143.938z"/>
<path fill="#9D7248" d="M156.502,129.217c0,0-4.871,3.91,0.465,8.51c1.162,1.003,3.172,0.833,4.518,1.052
	c1.684,0.274-9.677,2.114-9.677,2.114l-3.948-8.042l6.308-5.878L156.502,129.217z"/>
<g>
	<path fill="#E7E9E8" d="M175.182,105.427c0-5.742-0.049-6.951-2.303-6.951h-1.271v-1.302h11.003
		c2.637,4.576,4.984,7.853,7.766,11.888l7.993,11.662h-0.025v-15.297c0-5.742-0.05-6.951-2.31-6.951h-1.753v-1.302h10.022v1.302
		h-1.743c-2.259,0-2.306,1.209-2.306,6.951v23.958h-4.656l-18.538-27.096h0.096v18.57c0,5.741,0.046,6.954,2.305,6.954h1.457v1.302
		h-9.311v-1.302h1.271c2.254,0,2.303-1.213,2.303-6.954V105.427z M196.915,88.021c-0.517,2.783-2.117,6.013-5.695,6.013
		c-3.104,0-5.174-2.332-7.714-2.332c-1.364,0-1.883,1.031-2.212,2.152h-2.26c0.519-2.781,2.117-6.011,5.696-6.011
		c3.104,0,5.171,2.332,7.71,2.332c1.366,0,1.888-1.031,2.214-2.154H196.915z"/>
	<path fill="#E7E9E8" d="M210.361,127.813h1.268c2.258,0,2.309-1.213,2.309-6.954v-15.433c0-5.742-0.051-6.951-2.354-6.951h-1.223
		v-1.302h14.481v1.302h-1.22c-2.307,0-2.354,1.209-2.354,6.951v15.433c0,5.741,0.047,6.954,2.302,6.954h1.271v1.302h-14.481V127.813
		z"/>
	<path fill="#E7E9E8" d="M268.747,127.813h1.269c2.251,0,2.303-1.213,2.303-6.954v-15.433c0-5.742-0.052-6.951-2.353-6.951h-1.219
		v-1.302h26.374v7.582h-1.785c-0.519-5.071-3.715-6.013-7.522-6.013h-6.16v13.102h4.091c3.243,0,6.018-0.677,6.11-4.891h1.791
		v11.349h-1.791c-0.093-4.216-2.867-4.89-6.11-4.89h-4.091v14.128h5.409c4.462,0,8.697-0.761,8.885-6.367h1.786v7.941h-26.986
		V127.813z"/>
	<path fill="#E7E9E8" d="M305.035,120.59h1.782c0,4.443,4.19,7.671,9.028,7.671c3.952,0,6.534-2.195,6.534-5.741
		c0-8.345-17.625-4.575-17.625-16.417c0-6.327,5.029-9.647,11.14-9.647c2.68,0,5.5,1.168,7.053,1.168
		c0.846,0,1.271-0.449,1.362-0.899h1.506v8.077h-1.782c-0.289-4.038-3.58-6.775-7.905-6.775c-3.195,0-6.581,1.526-6.581,5.025
		c0,7.76,17.914,3.723,17.914,16.688c0,6.371-5.454,10.094-11.615,10.094c-3.243,0-6.206-1.17-8.04-1.17
		c-0.844,0-1.128,0.36-1.267,0.899h-1.504V120.59z"/>
	<path fill="#E7E9E8" d="M260.855,126.462c-1.444-0.993-3.432-3.09-5.959-6.295c-3.104-3.948-5.36-6.243-6.753-6.877
		c3.122-0.354,5.483-1.262,7.095-2.716c1.608-1.454,2.417-3.209,2.417-5.27c0-1.766-0.621-3.286-1.849-4.553
		c-1.235-1.271-2.848-2.186-4.847-2.743c-1.739-0.486-3.931-0.804-6.604-0.824v-0.011h-14.479v1.302h1.223
		c2.303,0,2.35,1.209,2.35,6.951v15.433c0,5.741-0.047,6.954-2.303,6.954h-1.27v1.302h14.479v-0.006v-1.089v-0.207h-1.271
		c-2.254,0-2.302-1.213-2.302-6.954v-6.936c0.842,0.014,1.478,0.151,1.887,0.424c0.423,0.289,1.205,1.088,2.34,2.394
		c1.137,1.311,2.225,2.675,3.279,4.102c3.286,4.456,5.729,7.213,7.318,8.267c1.062,0.718,2.688,1.198,4.239,1.159
		c2.969,0.086,6.142-1.159,6.142-1.159v-1.07C264.01,127.98,262.303,127.447,260.855,126.462z M242.581,112.605
		c-0.6-0.018-1.18-0.08-1.799-0.171v-7.008c0-4.275-0.052-5.96,0.756-6.597c0.464-0.213,0.99-0.334,1.604-0.349l0.555-0.006
		c2.853,0.154,4.109,0.867,5.065,1.881c1.249,1.331,1.876,3.104,1.876,5.32c0,1.271-0.185,2.336-0.55,3.202
		c-0.368,0.866-0.805,1.463-1.44,1.998c-0.637,0.533-1.479,0.944-2.506,1.218C245.132,112.369,243.94,112.539,242.581,112.605z"/>
	<g>
		<path fill="#E7E9E8" d="M34.931,127.416h1.271c2.258,0,2.306-1.214,2.306-6.954v-15.434c0-5.744-0.048-6.952-2.354-6.952h-1.222
			v-1.303h14.481v1.303h-1.219c-2.307,0-2.354,1.208-2.354,6.952v22.115h5.03c4.653,0,7.991-1.255,8.413-6.908h1.789v8.48H34.931
			V127.416z"/>
		<path fill="#E7E9E8" d="M82.694,96.056c9.875,0,14.905,7.625,14.905,16.331c0,8.883-4.515,17.045-14.905,17.045
			c-10.389,0-14.902-8.162-14.902-17.045C67.792,103.681,72.822,96.056,82.694,96.056z M82.694,128.13
			c6.347,0,7.007-7.355,7.007-15.521c0-9.779-1.314-15.253-7.007-15.253c-5.688,0-7.005,5.474-7.005,15.253
			C75.689,120.774,76.347,128.13,82.694,128.13z"/>
		<path fill="#E7E9E8" d="M106.055,120.191h1.787c0,4.44,4.184,7.671,9.027,7.671c3.951,0,6.535-2.199,6.535-5.741
			c0-8.347-17.631-4.576-17.631-16.417c0-6.328,5.031-9.648,11.139-9.648c2.682,0,5.504,1.168,7.057,1.168
			c0.844,0,1.268-0.45,1.363-0.898h1.507v8.074h-1.79c-0.281-4.037-3.572-6.774-7.899-6.774c-3.197,0-6.58,1.527-6.58,5.026
			c0,7.762,17.915,3.723,17.915,16.688c0,6.368-5.453,10.093-11.615,10.093c-3.244,0-6.207-1.166-8.043-1.166
			c-0.844,0-1.127,0.36-1.264,0.896h-1.508V120.191z"/>
	</g>
</g>
<path fill-rule="evenodd" clip-rule="evenodd" fill="#9D7248" d="M203.535,62.188c-4.942,0.96-7.946,3.093-7.164,7.532
	C200.334,71.361,204.126,66.468,203.535,62.188z"/>
<path fill-rule="evenodd" clip-rule="evenodd" fill="#9D7248" d="M158.333,66.855c2.801-4.066,3.687-9.969-1.346-12.497
	C154.44,57.888,152.539,65.146,158.333,66.855z"/>
<path fill-rule="evenodd" clip-rule="evenodd" fill="#9D7248" d="M185.36,59.92c-5.517,0.022-6.948,3.663-8.122,7.529
	C182.729,67.704,186.372,63.501,185.36,59.92z"/>
<path fill-rule="evenodd" clip-rule="evenodd" fill="#9D7248" d="M166.524,88.028c4.313,2.809,10.423-1.352,11.017-6.045
	C171.244,81.667,166.93,83.12,166.524,88.028z"/>
<path fill-rule="evenodd" clip-rule="evenodd" fill="#9D7248" d="M141.52,39.251c-1.556,4.591-1.504,8.24,2.074,9.823
	C146.13,45.647,145.111,40.6,141.52,39.251z"/>
<path fill-rule="evenodd" clip-rule="evenodd" fill="#9D7248" d="M172.383,51.111c4.484-2.745,5.669-8.983,2.189-12.189
	C170.664,43.447,169.029,47.641,172.383,51.111z"/>
<path fill-rule="evenodd" clip-rule="evenodd" fill="#9D7248" d="M119.078,62.861c-0.423-3.769-4.136-6.449-7.297-5.158
	C113.539,61.642,115.782,63.992,119.078,62.861z"/>
<path fill-rule="evenodd" clip-rule="evenodd" fill="#9D7248" d="M225.676,47.908c-4.217,0.116-7.185,1.259-7.396,4.661
	C221.843,53.604,225.658,51.251,225.676,47.908z"/>
<path fill-rule="evenodd" clip-rule="evenodd" fill="#9D7248" d="M202.929,37.918c-3.168-0.218-5.079,3.766-5.545,6.639
	C200.663,44.981,203.471,41.552,202.929,37.918z"/>
<path fill-rule="evenodd" clip-rule="evenodd" fill="#9D7248" d="M216.874,71.621c-3.97,0.096-6.764,1.163-6.973,4.361
	C213.25,76.964,216.847,74.765,216.874,71.621z"/>
<path fill-rule="evenodd" clip-rule="evenodd" fill="#9D7248" d="M159.311,30.232c3.841-3.249,4.05-9.315,0.295-11.838
	C156.572,23.24,155.639,27.437,159.311,30.232z"/>
<path fill-rule="evenodd" clip-rule="evenodd" fill="#9D7248" d="M188.125,32.215c-3.832,1.981-6.051,4.352-4.738,7.578
	C187.127,39.157,189.598,35.299,188.125,32.215z"/>
<path fill-rule="evenodd" clip-rule="evenodd" fill="#9D7248" d="M132.265,58.575c-1.061,3.5,2.454,7.691,7.849,7.537
	C139.025,62.29,137.682,58.69,132.265,58.575z"/>
<path fill-rule="evenodd" clip-rule="evenodd" fill="#9D7248" d="M227.004,56.301c-3.813,0.566-8.983-0.239-12.677-1.972
	c0.408-3.559-0.372-5.932-1.597-8.784c-0.986,1.03-2.309,2.13-3.396,2.602c0.468,1.206,0.784,2.278,0.883,3.492
	c-3.486-2.333-8.006-4.458-13.259-4.854c0.498,1.934,0.78,3.89,0.941,5.421c10.47,1.959,18.268,13.017,31.523,8.139
	C228.903,58.761,227.718,57.363,227.004,56.301z"/>
<path fill-rule="evenodd" clip-rule="evenodd" fill="#9D7248" d="M128.538,44.104c0.574-4.195-2.429-5.811-7.068-6.252
	C120.692,41.958,124.348,45.116,128.538,44.104z"/>
<path fill-rule="evenodd" clip-rule="evenodd" fill="#9D7248" d="M150.85,85.54c-0.832,0.986-1.559,1.993-2.204,3.006l8.634-1.298
	c3.535-3.795,8.884-7.145,13.507-8.645c15.596-5.043,36.686,12.235,49.254,2.188c-0.159-2.438-0.902-4.506-1.525-5.848
	c-3.579,3.663-9.466,4.318-16.204,2.241c6.495-2.535,11.157-11.132,11.568-14.776c-1.501-0.233-2.716-1.437-4.263-1.771
	c-2.778,7.051-5.065,13.385-16.64,13.301c-1.996-0.018-3.091-0.568-3.656-1.082c3.834-4.812,7.468-12.209,6.444-21.34
	c0.008,0,0.025,0,0.037,0.002c-0.188-1.544-0.507-3.455-1.047-5.275c-0.025,0-0.055,0.003-0.078,0.003
	c-0.785-2.627-1.965-5.367-3.635-8.207c-0.025,0-0.044,0-0.067,0c-2.11,0.012-3.988,2.119-5.39,4.36
	c0.973,1.623,1.741,3.194,2.344,4.723c-2.205,0.571-4.478,1.445-6.817,2.694c-4.582,2.457-8.385,5.962-11.419,9.79
	c0.165-10.945-4.603-19.051-5.321-20.201c-0.362-0.511-0.742-1.002-1.133-1.482c1.43-0.748,2.899-1.351,4.373-1.772
	c0.205-0.054,0.416-0.112,0.626-0.165c4.257-1.069,8.54-0.629,12.154,2.089c0.023-0.035,0.048-0.07,0.073-0.105
	c0.793-1.882,1.523-4.179,1.438-6.1c-4.385-1.858-9.021-2.269-13.272-1.789c0-0.001,0-0.001,0-0.006
	c-0.026,0.006-0.055,0.009-0.08,0.015c-2.062,0.236-4.032,0.682-5.839,1.275c-0.459,0.184-1.995,0.883-4.048,2.144
	c-0.696-0.516-1.431-0.999-2.201-1.441c0.01-0.051,0.005-0.06-0.024-0.014c-0.184-0.105-0.364-0.211-0.551-0.314
	c-2.611-1.543-5.787-2.517-9.159-2.849c-0.072-0.009-0.144-0.021-0.212-0.029v0.014c-2.598-0.235-5.295-0.098-7.936,0.446
	c-0.538,1.991-0.613,4.421-0.518,6.587c2.311-0.667,4.615-0.935,6.871-0.768c3.051,0.036,6.727,1.009,9.376,2.652
	c10.988,7.728,12.753,31.768,2.759,40.033c-0.047,0.188-0.104,0.335-0.17,0.459c-9.127-7.655-9.705-25.573-0.053-35.748
	c-1.063-1.32-2.557-2.648-4.656-3.745c-0.979,1.039-1.861,2.114-2.641,3.203c-0.506,0.809-3.026,5.333-4.41,11.787
	c-0.108,0.174-0.229,0.343-0.33,0.527c-2.119-1.572-5.984-3.965-9.373-5.496c0.198-2.263,0.887-4.064,1.275-4.928
	c-1.147-1.185-2.914-2.081-4.713-2.738c-1.116,2.238-1.586,4.33-1.729,6.116c-5.477-0.806-9.318-0.011-11.473,0.347
	c-0.369,1.77-1.215,5.302-1.277,5.676c3.126-0.633,10.836-1.741,18.121,1.652c4.938,2.456,9.082,7.285,8.963,16.18
	c0,0.008,0,0.013,0,0.021c0.033,0.526-0.072,2.684-0.127,2.679c-0.021,0.284-0.003,0.501-0.039,0.773
	c0.039,0.098,0.066,0.182,0.102,0.272c-4.357-2.4-9.751-4.37-9.751-4.37c-9.8-3.425-8.767-13.475-8.767-13.475h-5.834
	c-0.492,7.034,3.46,11.003,3.46,11.003l-8.659-1.5l-1.305,5.83c0,0,6.785,0.382,13.248,2.339
	C132.854,76.481,145.848,81.06,150.85,85.54z M187.279,52.78c0.703-0.267,1.394-0.486,2.072-0.67
	c0.254,1.448,0.353,2.839,0.32,4.159c-0.09,2.126-0.429,3.962-0.94,5.553c-0.174,0.524-0.359,1.037-0.567,1.526
	c-2.309,5.295-6.711,7.283-9.77,7.69c-2.836-0.118-5.689,0.092-8.559,0.744C172.666,63.482,176.078,57.041,187.279,52.78z"/>
<path fill-rule="evenodd" clip-rule="evenodd" fill="#9D7248" d="M160.418,124.81c0.184-0.195,0.338-0.384,0.492-0.568
	c0.178-0.229,0.355-0.473,0.537-0.708c1.899-2.751,0.771-4.495-0.073-5.275c-2.099,2.998-10.451,11.43-14.036,14.829l-2.619,2.246
	l8.035-2.127c1.762-2.133,4.406-4.458,6.914-7.443C159.854,125.471,160.094,125.156,160.418,124.81z"/>
<path fill="#9D7248" d="M147.691,131.968"/>
<path fill-rule="evenodd" clip-rule="evenodd" fill="#9D7248" d="M158.275,143.266c0.283-1.117,1.75-1.83,2.297-2.88
	c-3.709-0.408-8.281-2.235-9.42-5.396c0.339-2.011-2.068-3.56-4.202-1.633c-1.17,1.053-2.712,2.232-4.604,3.363
	c-0.396,0.238,0.41-0.259,0,0c-2.881,1.774-4.566,2.105-8.286,2.12c0.72,1.029-1.921,3.04-1.77,4.263L158.275,143.266z"/>
<path fill="#9D7248" d="M251.796,141.527c-0.92-1.543-2.336-2.373-27.128-2.186c-10.744,0.081-60.674-0.037-68.092-0.811
	c-1.82,0.598-4.078,3.321-3.504,4.617c6.953,0.688,60.38,0.985,71.823,0.961c19.792-0.039,25.655,0.732,27.423,1.211
	C252.321,144.601,252.287,142.566,251.796,141.527z"/>
<path fill="#9D7248" d="M35.904,141.073c0.92-1.543,2.338-2.371,27.131-2.186c10.743,0.082,71.707,0.417,79.125-0.356
	c1.82,0.598,4.079,3.321,3.504,4.617c-6.955,0.688-71.414,0.531-82.859,0.508c-19.788-0.041-25.654,0.73-27.422,1.21
	C35.38,144.146,35.416,142.112,35.904,141.073z"/>
<path fill-rule="evenodd" clip-rule="evenodd" fill="#9D7248" d="M151.665,113.633c-4.392-12.451,3.612-27.294,14.584-34.11
	l-3.103-1.055l-7.954,2.331c-18.05,14.448-11.416,35.046-8.771,38.794c-5.146,4.781-18.296,15.099-20.833,16.868
	c2.947-0.026,5.641-0.061,7.974-0.103c1.263-0.298,2.945-0.799,4.171-1.561c11.504-7.043,33.782-29.652,24.111-45.805
	C154.246,95.435,156.867,107.623,151.665,113.633z"/>
<g>
	<g>
		<g>
			<path fill="#9D7248" d="M259.905,135.181h2.293v8.335h5.195v2.083h-7.488V135.181z"/>
			<path fill="#9D7248" d="M270.595,140.42v-0.03c0-2.963,2.336-5.389,5.551-5.389c3.216,0,5.521,2.396,5.521,5.356v0.032
				c0,2.961-2.338,5.387-5.551,5.387S270.595,143.383,270.595,140.42z M279.27,140.42v-0.03c0-1.785-1.308-3.276-3.153-3.276
				s-3.125,1.46-3.125,3.244v0.032c0,1.784,1.309,3.272,3.154,3.272C277.989,143.662,279.27,142.204,279.27,140.42z"/>
			<path fill="#9D7248" d="M286.24,135.181h4.062c3.273,0,5.535,2.246,5.535,5.177v0.032c0,2.931-2.262,5.209-5.535,5.209h-4.062
				V135.181z M288.532,137.249v6.279h1.771c1.873,0,3.139-1.266,3.139-3.108v-0.03c0-1.848-1.266-3.141-3.139-3.141H288.532z"/>
			<path fill="#9D7248" d="M299.952,140.42v-0.03c0-2.963,2.305-5.389,5.463-5.389c1.871,0,3.004,0.507,4.092,1.429l-1.445,1.742
				c-0.807-0.672-1.517-1.059-2.726-1.059c-1.664,0-2.991,1.475-2.991,3.244v0.032c0,1.905,1.312,3.305,3.157,3.305
				c0.832,0,1.577-0.21,2.156-0.626v-1.489h-2.307v-1.979h4.523v4.525c-1.07,0.907-2.545,1.65-4.446,1.65
				C302.183,145.776,299.952,143.501,299.952,140.42z"/>
			<path fill="#9D7248" d="M314.611,135.181h7.86v2.038h-5.583v2.113h4.912v2.039h-4.912v2.188h5.657v2.039h-7.935V135.181z"/>
		</g>
	</g>
</g>
<g>
	<g>
		<g>
			<path fill="#E7E9E8" d="M40.542,163.977c0-0.522,0.095-1.04,0.285-1.551s0.465-0.969,0.829-1.37
				c0.363-0.401,0.809-0.728,1.332-0.979c0.525-0.248,1.123-0.372,1.795-0.372c0.791,0,1.477,0.172,2.051,0.518
				c0.578,0.346,1.01,0.797,1.293,1.352l-1.286,0.883c-0.112-0.241-0.25-0.447-0.412-0.61c-0.159-0.165-0.333-0.296-0.52-0.394
				c-0.187-0.096-0.38-0.166-0.582-0.21s-0.4-0.067-0.593-0.067c-0.42,0-0.785,0.086-1.098,0.254
				c-0.312,0.169-0.568,0.39-0.775,0.659c-0.206,0.269-0.361,0.573-0.467,0.916c-0.104,0.343-0.158,0.683-0.158,1.02
				c0,0.38,0.062,0.742,0.184,1.093s0.291,0.658,0.514,0.924c0.223,0.267,0.489,0.479,0.801,0.64
				c0.311,0.161,0.65,0.241,1.023,0.241c0.193,0,0.396-0.025,0.606-0.071c0.21-0.051,0.41-0.127,0.599-0.23
				c0.19-0.105,0.365-0.24,0.527-0.405c0.16-0.164,0.292-0.363,0.388-0.598l1.371,0.786c-0.14,0.32-0.335,0.605-0.589,0.851
				c-0.256,0.246-0.542,0.451-0.862,0.622c-0.318,0.169-0.66,0.296-1.021,0.386c-0.363,0.089-0.722,0.133-1.067,0.133
				c-0.613,0-1.175-0.128-1.684-0.386c-0.51-0.258-0.947-0.595-1.314-1.009c-0.369-0.415-0.654-0.884-0.86-1.41
				C40.645,165.062,40.542,164.523,40.542,163.977z"/>
			<path fill="#E7E9E8" d="M59.588,166.861v1.46h-5.973v-8.568h5.865v1.461h-4.193v2.063h3.623v1.353h-3.623v2.231H59.588z"/>
			<path fill="#E7E9E8" d="M65.138,168.321v-8.568h3.805c0.396,0,0.761,0.083,1.095,0.246c0.336,0.167,0.625,0.383,0.867,0.651
				c0.242,0.271,0.432,0.576,0.568,0.919c0.139,0.341,0.207,0.686,0.207,1.031c0,0.555-0.14,1.061-0.418,1.515
				c-0.278,0.456-0.655,0.783-1.133,0.985l1.962,3.221h-1.877l-1.757-2.871h-1.648v2.871H65.138z M66.809,163.988h2.098
				c0.152,0,0.296-0.035,0.43-0.108c0.133-0.073,0.248-0.17,0.345-0.298c0.097-0.121,0.173-0.271,0.23-0.438
				c0.057-0.169,0.084-0.351,0.084-0.544c0-0.201-0.032-0.385-0.097-0.555c-0.064-0.169-0.151-0.315-0.26-0.439
				c-0.107-0.125-0.234-0.223-0.375-0.292c-0.143-0.067-0.285-0.101-0.434-0.101h-2.021V163.988z"/>
			<path fill="#E7E9E8" d="M77.436,168.321v-8.568h3.805c0.396,0,0.762,0.083,1.096,0.246c0.336,0.167,0.624,0.383,0.865,0.651
				c0.243,0.271,0.434,0.576,0.57,0.919c0.139,0.341,0.207,0.686,0.207,1.031c0,0.555-0.141,1.061-0.418,1.515
				c-0.279,0.456-0.656,0.783-1.134,0.985l1.962,3.221h-1.876l-1.757-2.871h-1.648v2.871H77.436z M79.107,163.988h2.096
				c0.154,0,0.297-0.035,0.432-0.108c0.133-0.073,0.248-0.17,0.344-0.298c0.096-0.121,0.176-0.271,0.23-0.438
				c0.056-0.169,0.085-0.351,0.085-0.544c0-0.201-0.032-0.385-0.098-0.555c-0.064-0.169-0.151-0.315-0.259-0.439
				c-0.111-0.125-0.235-0.223-0.377-0.292c-0.141-0.067-0.285-0.101-0.431-0.101h-2.022V163.988z"/>
			<path fill="#E7E9E8" d="M93.404,168.382c-0.631,0-1.201-0.123-1.715-0.368c-0.512-0.246-0.953-0.569-1.32-0.978
				c-0.367-0.406-0.651-0.871-0.854-1.395c-0.2-0.524-0.303-1.057-0.303-1.604c0-0.571,0.107-1.119,0.321-1.642
				c0.214-0.523,0.508-0.985,0.885-1.388c0.375-0.402,0.822-0.723,1.338-0.961c0.519-0.237,1.079-0.354,1.686-0.354
				c0.621,0,1.189,0.126,1.701,0.378c0.512,0.256,0.953,0.585,1.315,0.998c0.364,0.409,0.646,0.877,0.849,1.398
				c0.201,0.523,0.303,1.056,0.303,1.594c0,0.57-0.106,1.116-0.314,1.635c-0.211,0.519-0.502,0.978-0.873,1.375
				c-0.372,0.399-0.815,0.719-1.334,0.955C94.57,168.263,94.011,168.382,93.404,168.382z M90.907,164.037
				c0,0.371,0.059,0.729,0.171,1.075c0.113,0.345,0.277,0.651,0.49,0.915c0.214,0.267,0.478,0.479,0.787,0.64
				c0.312,0.162,0.665,0.243,1.062,0.243c0.403,0,0.761-0.083,1.071-0.246c0.312-0.167,0.574-0.387,0.789-0.659
				c0.213-0.274,0.374-0.582,0.484-0.925c0.107-0.342,0.162-0.689,0.162-1.043c0-0.369-0.06-0.728-0.175-1.073
				c-0.116-0.347-0.282-0.653-0.495-0.918c-0.216-0.265-0.479-0.477-0.789-0.634c-0.311-0.156-0.66-0.236-1.048-0.236
				c-0.404,0-0.763,0.084-1.077,0.249c-0.316,0.164-0.58,0.383-0.789,0.651c-0.211,0.269-0.369,0.575-0.479,0.916
				C90.963,163.335,90.907,163.684,90.907,164.037z"/>
			<path fill="#E7E9E8" d="M109.762,163.977c0-0.522,0.094-1.04,0.283-1.551s0.469-0.969,0.83-1.37
				c0.365-0.401,0.81-0.728,1.334-0.979c0.523-0.248,1.122-0.372,1.794-0.372c0.791,0,1.477,0.172,2.052,0.518
				c0.578,0.346,1.009,0.797,1.291,1.352l-1.285,0.883c-0.113-0.241-0.248-0.447-0.413-0.61c-0.159-0.165-0.333-0.296-0.52-0.394
				c-0.186-0.096-0.38-0.166-0.581-0.21c-0.202-0.044-0.398-0.067-0.593-0.067c-0.421,0-0.786,0.086-1.096,0.254
				c-0.312,0.169-0.571,0.39-0.777,0.659c-0.206,0.269-0.361,0.573-0.466,0.916c-0.105,0.343-0.158,0.683-0.158,1.02
				c0,0.38,0.062,0.742,0.182,1.093c0.121,0.351,0.293,0.658,0.516,0.924c0.221,0.267,0.486,0.479,0.799,0.64
				c0.311,0.161,0.652,0.241,1.025,0.241c0.194,0,0.396-0.025,0.605-0.071c0.21-0.051,0.41-0.127,0.6-0.23
				c0.188-0.105,0.365-0.24,0.527-0.405c0.161-0.164,0.289-0.363,0.387-0.598l1.369,0.786c-0.137,0.32-0.334,0.605-0.588,0.851
				c-0.254,0.246-0.541,0.451-0.861,0.622c-0.318,0.169-0.658,0.296-1.022,0.386c-0.362,0.089-0.72,0.133-1.065,0.133
				c-0.615,0-1.175-0.128-1.684-0.386c-0.51-0.258-0.947-0.595-1.316-1.009c-0.367-0.415-0.653-0.884-0.86-1.41
				C109.865,165.062,109.762,164.523,109.762,163.977z"/>
			<path fill="#E7E9E8" d="M125.162,159.753h1.477l3.27,8.568h-1.717l-0.802-2.135h-3.004l-0.788,2.135h-1.721L125.162,159.753z
				 M127.087,165.016l-1.188-3.368l-1.236,3.368H127.087z"/>
			<path fill="#E7E9E8" d="M140.684,161.214h-2.752v7.107h-1.66v-7.107h-2.752v-1.461h7.164V161.214z"/>
			<path fill="#E7E9E8" d="M151.961,166.861v1.46h-5.973v-8.568h5.863v1.461h-4.191v2.063h3.623v1.353h-3.623v2.231H151.961z"/>
			<path fill="#E7E9E8" d="M157.512,168.321v-8.568h3.124c0.704,0,1.319,0.112,1.849,0.337c0.529,0.226,0.975,0.531,1.326,0.918
				c0.356,0.385,0.623,0.839,0.801,1.359c0.178,0.518,0.265,1.071,0.265,1.657c0,0.652-0.097,1.241-0.296,1.768
				c-0.197,0.528-0.48,0.979-0.854,1.353c-0.371,0.374-0.817,0.663-1.338,0.869c-0.521,0.206-1.105,0.308-1.753,0.308H157.512z
				 M163.195,164.024c0-0.409-0.06-0.787-0.17-1.133c-0.115-0.348-0.279-0.646-0.499-0.895c-0.217-0.248-0.485-0.443-0.804-0.579
				c-0.321-0.137-0.683-0.204-1.087-0.204h-1.453v5.647h1.453c0.415,0,0.78-0.071,1.099-0.218c0.319-0.145,0.585-0.343,0.799-0.596
				c0.213-0.256,0.377-0.553,0.492-0.899C163.136,164.801,163.195,164.428,163.195,164.024z"/>
			<path fill="#E7E9E8" d="M170.428,168.321v-8.568h3.804c0.396,0,0.76,0.083,1.097,0.246c0.335,0.167,0.624,0.383,0.866,0.651
				c0.241,0.271,0.433,0.576,0.569,0.919c0.137,0.341,0.205,0.686,0.205,1.031c0,0.555-0.139,1.061-0.418,1.515
				c-0.278,0.456-0.655,0.783-1.133,0.985l1.965,3.221h-1.878l-1.759-2.871H172.1v2.871H170.428z M172.1,163.988h2.095
				c0.154,0,0.297-0.035,0.43-0.108c0.134-0.073,0.251-0.17,0.347-0.298c0.096-0.121,0.174-0.271,0.23-0.438
				c0.056-0.169,0.084-0.351,0.084-0.544c0-0.201-0.032-0.385-0.097-0.555c-0.064-0.169-0.151-0.315-0.26-0.439
				c-0.108-0.125-0.235-0.223-0.376-0.292c-0.142-0.067-0.284-0.101-0.431-0.101H172.1V163.988z"/>
			<path fill="#E7E9E8" d="M185.042,159.753h1.479l3.274,8.568h-1.722l-0.8-2.135h-3.007l-0.788,2.135h-1.723L185.042,159.753z
				 M186.971,165.016l-1.189-3.368l-1.235,3.368H186.971z"/>
			<path fill="#E7E9E8" d="M194.986,168.321v-8.568h1.672v7.108h4.391v1.46H194.986z"/>
			<path fill="#E7E9E8" d="M227.21,166.112c0,0.362-0.073,0.681-0.22,0.954c-0.146,0.274-0.346,0.503-0.601,0.688
				c-0.253,0.186-0.546,0.328-0.882,0.424c-0.337,0.095-0.693,0.144-1.074,0.144h-4.156v-8.568h4.604
				c0.301,0,0.571,0.063,0.813,0.193c0.24,0.127,0.445,0.295,0.618,0.5c0.167,0.204,0.3,0.438,0.393,0.7
				c0.093,0.262,0.138,0.525,0.138,0.79c0,0.42-0.103,0.813-0.313,1.179c-0.209,0.366-0.519,0.638-0.921,0.813
				c0.491,0.146,0.881,0.404,1.17,0.778C227.067,165.08,227.21,165.552,227.21,166.112z M221.951,161.176v2.162h2.228
				c0.284,0,0.523-0.097,0.723-0.289c0.197-0.195,0.295-0.461,0.295-0.799c0-0.328-0.092-0.591-0.271-0.784
				c-0.182-0.192-0.407-0.29-0.672-0.29H221.951z M225.523,165.8c0-0.153-0.025-0.301-0.078-0.44
				c-0.052-0.142-0.125-0.264-0.212-0.369c-0.088-0.104-0.193-0.186-0.314-0.247c-0.122-0.06-0.255-0.09-0.401-0.09h-2.566v2.257
				h2.482c0.154,0,0.296-0.028,0.431-0.086c0.135-0.056,0.248-0.135,0.346-0.234c0.097-0.101,0.174-0.219,0.229-0.356
				C225.496,166.098,225.523,165.952,225.523,165.8z"/>
			<path fill="#E7E9E8" d="M235.023,159.753h1.479l3.27,8.568h-1.718l-0.802-2.135h-3.003l-0.789,2.135h-1.719L235.023,159.753z
				 M236.95,165.016l-1.188-3.368l-1.232,3.368H236.95z"/>
			<path fill="#E7E9E8" d="M244.96,168.321v-8.568h3.806c0.394,0,0.759,0.083,1.095,0.246c0.332,0.167,0.625,0.383,0.863,0.651
				c0.244,0.271,0.436,0.576,0.569,0.919c0.141,0.341,0.21,0.686,0.21,1.031c0,0.555-0.141,1.061-0.417,1.515
				c-0.28,0.456-0.658,0.783-1.137,0.985l1.962,3.221h-1.875l-1.756-2.871h-1.648v2.871H244.96z M246.632,163.988h2.092
				c0.159,0,0.301-0.035,0.434-0.108c0.134-0.073,0.249-0.17,0.346-0.298c0.098-0.121,0.174-0.271,0.23-0.438
				c0.059-0.169,0.084-0.351,0.084-0.544c0-0.201-0.031-0.385-0.096-0.555c-0.064-0.169-0.154-0.315-0.262-0.439
				c-0.109-0.125-0.235-0.223-0.378-0.292c-0.139-0.067-0.283-0.101-0.427-0.101h-2.023V163.988z"/>
			<path fill="#E7E9E8" d="M257.258,168.321v-8.568h1.671v8.568H257.258z"/>
			<path fill="#E7E9E8" d="M264.964,168.321v-8.568h1.671v7.108h4.387v1.46H264.964z"/>
			<path fill="#E7E9E8" d="M279.406,168.382c-0.63,0-1.205-0.123-1.716-0.368c-0.511-0.246-0.953-0.569-1.321-0.978
				c-0.365-0.406-0.65-0.871-0.853-1.395c-0.203-0.524-0.302-1.057-0.302-1.604c0-0.571,0.104-1.119,0.321-1.642
				c0.212-0.523,0.505-0.985,0.885-1.388c0.373-0.402,0.819-0.723,1.336-0.961c0.517-0.237,1.08-0.354,1.685-0.354
				c0.622,0,1.188,0.126,1.702,0.378c0.512,0.256,0.952,0.585,1.316,0.998c0.361,0.409,0.647,0.877,0.846,1.398
				c0.203,0.523,0.305,1.056,0.305,1.594c0,0.57-0.107,1.116-0.314,1.635c-0.208,0.519-0.501,0.978-0.871,1.375
				c-0.372,0.399-0.817,0.719-1.334,0.955C280.572,168.263,280.013,168.382,279.406,168.382z M276.91,164.037
				c0,0.371,0.056,0.729,0.17,1.075c0.111,0.345,0.277,0.651,0.49,0.915c0.214,0.267,0.479,0.479,0.787,0.64
				c0.31,0.162,0.663,0.243,1.061,0.243c0.403,0,0.761-0.083,1.071-0.246c0.312-0.167,0.575-0.387,0.789-0.659
				c0.211-0.274,0.375-0.582,0.481-0.925c0.113-0.342,0.164-0.689,0.164-1.043c0-0.369-0.057-0.728-0.174-1.073
				c-0.119-0.347-0.282-0.653-0.495-0.918c-0.216-0.265-0.479-0.477-0.787-0.634c-0.311-0.156-0.662-0.236-1.05-0.236
				c-0.405,0-0.765,0.084-1.078,0.249c-0.315,0.164-0.577,0.383-0.789,0.651c-0.211,0.269-0.369,0.575-0.479,0.916
				C276.966,163.335,276.91,163.684,276.91,164.037z"/>
			<path fill="#E7E9E8" d="M288.615,163.977c0-0.522,0.093-1.04,0.285-1.551c0.188-0.511,0.464-0.969,0.827-1.37
				c0.364-0.401,0.809-0.728,1.334-0.979c0.522-0.248,1.122-0.372,1.791-0.372c0.794,0,1.479,0.172,2.055,0.518
				c0.579,0.346,1.009,0.797,1.291,1.352l-1.285,0.883c-0.112-0.241-0.249-0.447-0.413-0.61c-0.159-0.165-0.331-0.296-0.519-0.394
				c-0.185-0.096-0.38-0.166-0.58-0.21c-0.205-0.044-0.402-0.067-0.597-0.067c-0.418,0-0.786,0.086-1.097,0.254
				c-0.312,0.169-0.565,0.39-0.771,0.659c-0.21,0.269-0.368,0.573-0.468,0.916c-0.107,0.343-0.159,0.683-0.159,1.02
				c0,0.38,0.06,0.742,0.181,1.093s0.294,0.658,0.517,0.924c0.221,0.267,0.489,0.479,0.8,0.64c0.308,0.161,0.651,0.241,1.023,0.241
				c0.193,0,0.393-0.025,0.604-0.071c0.211-0.051,0.409-0.127,0.601-0.23c0.188-0.105,0.365-0.24,0.525-0.405
				c0.162-0.164,0.29-0.363,0.392-0.598l1.367,0.786c-0.138,0.32-0.334,0.605-0.587,0.851c-0.255,0.246-0.541,0.451-0.861,0.622
				c-0.318,0.169-0.662,0.296-1.023,0.386c-0.364,0.089-0.718,0.133-1.067,0.133c-0.615,0-1.172-0.128-1.684-0.386
				c-0.511-0.258-0.947-0.595-1.316-1.009c-0.368-0.415-0.652-0.884-0.857-1.41C288.716,165.062,288.615,164.523,288.615,163.977z"
				/>
			<path fill="#E7E9E8" d="M308.918,159.753v8.568h-1.655v-3.656h-3.902v3.656h-1.675v-8.568h1.675v3.463h3.902v-3.463H308.918z"/>
			<path fill="#E7E9E8" d="M320.928,166.861v1.46h-5.974v-8.568h5.865v1.461h-4.193v2.063h3.624v1.353h-3.624v2.231H320.928z"/>
		</g>
	</g>
	<rect x="210.052" y="158.563" fill="#E7E9E8" width="0.979" height="9.76"/>
</g>
</svg>
